inDegrees=yes
name=greeting_output.mot
DataType=double
version=3
OpenSimVersion=4.5
endheader
time	pelvis_tilt	pelvis_list	pelvis_rotation	pelvis_tx	pelvis_ty	pelvis_tz	hip_flexion_r	hip_adduction_r	hip_rotation_r	knee_angle_r	knee_angle_r_beta	ankle_angle_r	subtalar_angle_r	mtp_angle_r	hip_flexion_l	hip_adduction_l	hip_rotation_l	knee_angle_l	knee_angle_l_beta	ankle_angle_l	subtalar_angle_l	mtp_angle_l	lumbar_extension	lumbar_bending	lumbar_rotation	arm_flex_r	arm_add_r	arm_rot_r	elbow_flex_r	pro_sup_r	wrist_flex_r	wrist_dev_r	arm_flex_l	arm_add_l	arm_rot_l	elbow_flex_l	pro_sup_l	wrist_flex_l	wrist_dev_l
0.7115384615384618	-0.8933355761407491	-4.903462986049233	166.1953360544846	0	0.93	0	2.169133190770938	-4.596141991876572	-0.7395419946987649	0.9723267435530635	0.01697030308019551	-1.658772854694817	0	0	2.898741714216589	4.746542058773423	-1.271047271756574	2.380593283031682	0.04154919093976411	-1.658772855403499	0	0	0	0	0	0	0	10.33930359758367	0	0	0	0	0	0	0.1266802430670394	0	0	0	0
0.7307692307692311	-0.3466160046031284	-4.494227391363999	166.0624896949058	0	0.93	0	2.838555486042762	-4.042866495491487	-0.4610358457621245	0.98802005573541	0.01724420304832079	-1.691257943116814	0	0	2.651485669018935	4.501370633351859	0.9387721986555381	1.274057928562424	0.02223650571455301	-1.691257943708612	0	0	0	0	0	0	0	12.78996578131193	6.405053634743262e-39	0	0	0	0	0	0.587068335135613	1.68878863646021e-39	0	0	0
0.7500000000000003	0.2554832595895317	-6.094153246667705	166.1175040030275	0	0.93	0	4.035713351438064	-5.519562591276827	-0.4191242960616536	1.330567174833281	0.02322277811979979	-1.723812466662631	0	0	1.959502707913578	6.472798913779938	4.751789483041446	0.1776350239791318	0.003100316035294929	-1.723812467248506	0	0	0	0	0	0	0	14.14306642199846	3.782995821619829e-39	3.177052127218563e-39	0	0	0	0	0.1531119474949648	0	9.003062317697707e-39	0	0
0.7692307692307696	0.8363110553429692	-6.868340306516049	166.3790345175178	0	0.93	0	4.557889585905169	-6.42386455995354	0.1583596198277413	1.322603435598258	0.02308378464937838	-1.74651887430493	0	0	2.362690907915934	7.559981377968558	3.836487676898576	0.153181188662832	0.002673516094285028	-1.746518874886584	0	0	0	0	0	0	0	15.73519454505599	0	5.756198221489127e-39	0	0	0	0	0.5001204113352864	5.261785496470474e-39	1.633707328007064e-39	0	0
0.7884615384615389	1.807239779201203	-7.04478165042192	166.3770660882553	0	0.93	0	5.122202444861249	-6.492614107022393	0.000571284103219332	1.233188156571936	0.02152319362877964	-1.761734996564871	0	0	2.317159164231006	7.653230467684605	5.700569336650024	0.100368035577284	0.001751752684582414	-1.761734997143761	0	0	0	0	0	0	0	16.32110773902217	0	6.635351674909811e-39	0	0	0	0	0.2627606396005323	1.723782857068458e-40	0	0	0
0.8076923076923082	3.497522156960348	-6.181886541423614	166.325880597173	0	0.93	0	6.364325957116188	-5.512919149007581	0.8064807309670176	1.278189794949296	0.02230862038725639	-1.798681347714716	0	0	4.621582810951812	6.034562635083682	1.445385967515545	0.2216942679675884	0.003869294908833015	-1.798681348286892	0	0	0	0	0	0	0	14.90995254254273	4.1256525138692e-39	7.399544488507376e-40	0	0	0	0	-0.1593193415508654	0	0	0	0
0.8269230769230774	4.196480194043328	-2.611980084475381	166.2482823209097	0	0.93	0	5.966456956870402	-2.128462255459626	-0.2800986079317687	1.408973475757408	0.02459122622523527	-1.852746314281951	0	0	5.337094503895247	1.946287550279171	-0.5079911513341336	0.7784182120224009	0.0135859607572782	-1.852746314844308	0	0	0	0	0	0	0	13.62012763282807	6.84892080725266e-39	1.841625218769974e-38	0	0	0	0	-0.7023739082000036	2.42599939795642e-38	1.545217245679064e-38	0	0
0.8461538461538467	3.375032036981273	-6.310223246687421	166.2394745228941	0	0.93	0	5.943497208641864	-5.921004077011564	0.2687005590420407	1.362204871686872	0.02377496009764279	-1.990126013147822	0	0	5.36258943836162	5.454754918532864	0.4150597787724841	0.6128949617653683	0.01069703505169043	-1.990126013668615	0	0	0	0	0	0	0	-0.1625643125878974	0	3.38973667625967e-39	0	0	0	0	0.4653286576634432	9.418401957140148e-39	2.518737208758735e-39	0	0
0.865384615384616	2.648269933073297	-6.590186549359701	166.5639784760315	0	0.93	0	5.296897036354983	-6.234827052208574	-0.7287024048408511	1.51295675468597	0.02640607680955832	-2.015380586084337	0	0	3.497554165049119	6.050505325477896	5.656007390377296	0.1189990307070349	0.002076924892519594	-2.015380586594378	0	0	0	0	0	0	0	-7.354239136592011	1.144811453151745e-38	2.494409640128557e-39	0	0	0	0	0.09505875759767314	1.589028391859783e-39	0	0	0
0.8846153846153852	1.780624250319874	-6.941033018755451	166.3711252035156	0	0.93	0	4.403626861360162	-6.515293362477504	-0.1371597412415124	1.230561101225325	0.02147734286334916	-2.088448149387347	0	0	3.30646327626607	6.846832083159677	0.7747143441932589	0.3497646168262726	0.006104544170594816	-2.088448149884752	0	0	0	0	0	0	0	-16.39752964673564	2.212349282540747e-40	0	0	0	0	0	0.3281293451258098	1.170744256412895e-39	0	0	0
0.9038461538461545	7.050536493315465	-9.594700411219257	166.3590557233327	0	0.93	0	10.16400265509758	-7.92171755817122	2.024587352912968	0.8259983964806306	0.01441639163478054	-2.149737940022045	0	0	8.661652974692961	8.433995038435677	2.679127196801396	0.176775612228275	0.003085316470612148	-2.149737940508539	0	0	0	0	0	0	0	-27.00060761733368	0	0	0	0	0	0	0.03976002489422625	1.446924028172966e-38	0	0	0
